<?xml version="1.0" encoding="UTF-8"?>
<svg id="Capa_1" data-name="Capa 1" xmlns="http://www.w3.org/2000/svg" viewBox="0 0 387.79 140.11">
  <defs>
    <style>
      .cls-1 {
        fill: #f55;
      }
    </style>
  </defs>
  <polygon class="cls-1" points="346.23 23.17 300.32 101.78 277.91 63.4 259.6 63.4 290.99 116.58 309.67 116.58 364.78 23.17 346.23 23.17"/>
  <path class="cls-1" d="m127,67.22c-5.19-1.77-11.48-3.06-18.87-3.85-7.39-.79-15.74-1.53-25.06-2.19-8.15-.57-14.82-1.2-20.01-1.9-5.19-.69-9.25-1.56-12.16-2.6-2.9-1.05-4.91-2.4-6.03-4.06-1.11-1.66-1.65-3.74-1.64-6.25.01-3.13,1.05-5.64,3.11-7.51,2.07-1.88,5.75-3.23,11.03-4.05,5.29-.83,12.78-1.23,22.45-1.19,10.39.04,18.77.6,25.12,1.66,1.12.19,2.02.3,2.77.38-.13.86-.21,1.73-.21,2.63,0,10,8.11,18.11,18.11,18.11s18.11-8.1,18.11-18.11-8.11-18.1-18.11-18.1c-4.16,0-7.99,1.42-11.05,3.78-.56-.14-1.21-.3-1.97-.49-8.46-2.14-18.46-3.24-30.02-3.29-11.2-.05-20.97.61-29.3,1.96-8.34,1.36-14.78,3.86-19.32,7.51-4.54,3.65-6.83,8.93-6.85,15.83-.03,6.81,1.85,12.19,5.64,16.15,3.8,3.96,9.81,6.89,18.04,8.81,8.24,1.91,18.98,3.3,32.23,4.16,9.23.58,16.73,1.17,22.5,1.77,5.78.61,10.21,1.44,13.29,2.48,3.09,1.04,5.21,2.39,6.37,4.05,1.16,1.66,1.74,3.83,1.73,6.52-.02,5.1-3.09,8.74-9.19,10.91-6.1,2.17-16.36,3.23-30.78,3.17-9.6-.04-17.58-.48-23.95-1.33.2-1.08.32-2.2.32-3.34,0-10-8.11-18.1-18.11-18.1s-18.11,8.1-18.11,18.1,8.11,18.11,18.11,18.11c3.34,0,6.46-.92,9.15-2.5,8.94,1.61,19.32,2.45,31.18,2.5,7.98.03,15.44-.27,22.38-.91,6.94-.64,13.04-1.94,18.28-3.88,5.25-1.95,9.36-4.8,12.33-8.55,2.98-3.76,4.48-8.72,4.5-14.9.02-5.83-1.35-10.42-4.11-13.79-2.76-3.37-6.73-5.93-11.92-7.7Zm5.71-28.93c0,3.92-3.17,7.09-7.09,7.09s-7.09-3.17-7.09-7.09,3.17-7.09,7.09-7.09,7.09,3.17,7.09,7.09Zm-94.59,60.56c0-3.91,3.17-7.09,7.09-7.09s7.09,3.17,7.09,7.09-3.17,7.09-7.09,7.09-7.09-3.17-7.09-7.09Z"/>
  <polygon class="cls-1" points="241.58 23.93 195.67 102.53 173.26 64.16 154.96 64.16 186.34 117.34 205.02 117.34 260.13 23.93 241.58 23.93"/>
</svg>