<svg xmlns="http://www.w3.org/2000/svg" xmlns:xlink="http://www.w3.org/1999/xlink" width="388" zoomAndPan="magnify" viewBox="0 0 291 104.999996" height="140" preserveAspectRatio="xMidYMid meet" version="1.0"><path fill="#ffffff" d="M 259.65625 17.363281 L 225.25 76.273438 L 208.457031 47.511719 L 194.734375 47.511719 L 218.257812 87.367188 L 232.257812 87.367188 L 273.558594 17.363281 Z M 259.65625 17.363281 " fill-opacity="1" fill-rule="nonzero"/><path fill="#ffffff" d="M 95.363281 50.375 C 91.472656 49.050781 86.757812 48.082031 81.222656 47.488281 C 75.683594 46.898438 69.425781 46.34375 62.441406 45.847656 C 56.332031 45.421875 51.335938 44.949219 47.445312 44.425781 C 43.554688 43.90625 40.511719 43.257812 38.332031 42.476562 C 36.160156 41.691406 34.652344 40.679688 33.8125 39.433594 C 32.980469 38.191406 32.578125 36.632812 32.585938 34.75 C 32.59375 32.40625 33.371094 30.523438 34.914062 29.121094 C 36.464844 27.714844 39.222656 26.703125 43.179688 26.085938 C 47.144531 25.464844 52.757812 25.164062 60.003906 25.195312 C 67.792969 25.226562 74.070312 25.644531 78.832031 26.4375 C 79.671875 26.582031 80.34375 26.664062 80.90625 26.722656 C 80.808594 27.367188 80.75 28.019531 80.75 28.695312 C 80.75 36.1875 86.828125 42.265625 94.320312 42.265625 C 101.816406 42.265625 107.894531 36.195312 107.894531 28.695312 C 107.894531 21.191406 101.816406 15.128906 94.320312 15.128906 C 91.203125 15.128906 88.332031 16.195312 86.039062 17.964844 C 85.621094 17.859375 85.132812 17.738281 84.5625 17.597656 C 78.222656 15.992188 70.730469 15.167969 62.066406 15.128906 C 53.671875 15.09375 46.351562 15.585938 40.109375 16.597656 C 33.859375 17.617188 29.03125 19.492188 25.628906 22.226562 C 22.226562 24.960938 20.511719 28.917969 20.496094 34.089844 C 20.472656 39.195312 21.882812 43.226562 24.722656 46.195312 C 27.570312 49.160156 32.074219 51.355469 38.242188 52.796875 C 44.417969 54.226562 52.464844 55.269531 62.394531 55.914062 C 69.3125 56.347656 74.933594 56.789062 79.257812 57.238281 C 83.589844 57.695312 86.910156 58.320312 89.21875 59.097656 C 91.535156 59.878906 93.121094 60.890625 93.992188 62.132812 C 94.859375 63.378906 95.296875 65.003906 95.289062 67.019531 C 95.273438 70.84375 92.972656 73.570312 88.402344 75.195312 C 83.828125 76.820312 76.140625 77.617188 65.335938 77.570312 C 58.140625 77.542969 52.160156 77.210938 47.386719 76.574219 C 47.535156 75.765625 47.625 74.925781 47.625 74.070312 C 47.625 66.578125 41.546875 60.507812 34.054688 60.507812 C 26.558594 60.507812 20.480469 66.578125 20.480469 74.070312 C 20.480469 81.566406 26.558594 87.644531 34.054688 87.644531 C 36.554688 87.644531 38.894531 86.953125 40.910156 85.769531 C 47.609375 86.976562 55.390625 87.605469 64.277344 87.644531 C 70.257812 87.667969 75.847656 87.441406 81.050781 86.960938 C 86.25 86.480469 90.820312 85.507812 94.75 84.054688 C 98.683594 82.59375 101.761719 80.457031 103.988281 77.644531 C 106.222656 74.828125 107.347656 71.113281 107.359375 66.480469 C 107.375 62.109375 106.347656 58.671875 104.28125 56.144531 C 102.210938 53.621094 99.238281 51.703125 95.347656 50.375 Z M 99.640625 28.695312 C 99.640625 31.632812 97.265625 34.007812 94.328125 34.007812 C 91.390625 34.007812 89.015625 31.632812 89.015625 28.695312 C 89.015625 25.757812 91.390625 23.382812 94.328125 23.382812 C 97.265625 23.382812 99.640625 25.757812 99.640625 28.695312 Z M 28.753906 74.078125 C 28.753906 71.148438 31.132812 68.765625 34.070312 68.765625 C 37.007812 68.765625 39.382812 71.140625 39.382812 74.078125 C 39.382812 77.015625 37.007812 79.394531 34.070312 79.394531 C 31.132812 79.394531 28.753906 77.015625 28.753906 74.078125 Z M 28.753906 74.078125 " fill-opacity="1" fill-rule="nonzero"/><path fill="#ffffff" d="M 181.230469 17.933594 L 146.824219 76.835938 L 130.03125 48.082031 L 116.316406 48.082031 L 139.832031 87.9375 L 153.832031 87.9375 L 195.132812 17.933594 Z M 181.230469 17.933594 " fill-opacity="1" fill-rule="nonzero"/></svg>